<?xml version="1.0" encoding="UTF-8" standalone="no"?><!DOCTYPE svg PUBLIC "-//W3C//DTD SVG 1.1//EN" "http://www.w3.org/Graphics/SVG/1.1/DTD/svg11.dtd"><svg width="500px" height="400px" version="1.1" xmlns="http://www.w3.org/2000/svg" xmlns:xlink="http://www.w3.org/1999/xlink" xml:space="preserve" xmlns:serif="http://www.serif.com/" style="fill-rule:evenodd;clip-rule:evenodd;stroke-linejoin:round;stroke-miterlimit:2;"><g id="rect162" transform="matrix(1.71629,0,0,1.36091,-224.342,-664.419)"><path d="M154.044,622.172C151.366,624.679 148.632,627.238 145.841,629.851L139.752,635.55L130.713,620.193L136.802,614.494C153.946,598.445 168.917,584.439 181.992,572.216L181.992,512.407L216.03,512.407L216.03,540.422C251.205,508.879 266.866,494.825 272.776,489.52C274.599,487.883 277.046,487.894 278.859,489.548C299.796,508.648 422.039,620.164 422.039,620.164L413.027,635.546L398.676,622.172L384.679,622.172L384.679,775.473C384.679,777.218 384.129,778.891 383.151,780.125C382.173,781.359 380.846,782.052 379.462,782.052L173.294,782.052C171.91,782.052 170.583,781.359 169.605,780.125C168.627,778.891 168.077,777.218 168.077,775.473L168.077,622.172L154.044,622.172ZM255.876,547.852C243.701,537.259 229.411,545.102 223.984,565.354C218.558,585.607 224.036,610.65 236.211,621.243C248.386,631.836 262.676,623.993 268.103,603.741C273.53,583.488 268.051,558.445 255.876,547.852ZM324.721,550.408C315.657,535.667 300.155,537.692 290.125,554.926C280.096,572.16 279.312,598.12 288.376,612.861C297.44,627.601 312.942,625.577 322.972,608.342C333.001,591.108 333.785,565.148 324.721,550.408ZM370.682,610.871C366.112,594.144 351.698,590.141 338.516,601.937C325.333,613.732 318.341,636.889 322.912,653.615C327.482,670.342 341.896,674.345 355.078,662.55C368.261,650.754 375.253,627.598 370.682,610.871ZM251.752,761.152C264.906,755.162 288.308,739.398 293.021,712.362C296.084,694.791 286.031,681.671 277.706,675.669C274.878,673.63 297.646,676.605 299.263,685.599C301.414,696.561 301.42,679.79 303.783,686.279C309.276,701.366 308.713,710.266 308.713,710.266L312.175,704.197C312.175,704.197 310.938,733.259 304.043,740.231C297.148,747.203 302.213,746.088 302.213,746.088C302.213,746.088 296.072,756.857 288.768,761.203C299.885,761.346 311.789,761.631 322.609,761.327C337.794,760.901 345.933,735.815 344.518,720.005C343.186,705.125 331.491,691.152 321.826,678.189C312.579,665.788 305.107,648.573 305.107,648.573C305.107,648.573 298.589,636.018 287.593,629.096C287.593,629.096 268.735,622.714 259.464,634.332C253.229,642.146 241.737,662.802 236.628,671.273C232.146,678.706 220.529,690.655 212.769,701.996C207.814,709.238 206.412,732.587 212.378,744.798C219.684,759.752 228.805,760.976 243.286,761.081C246.134,761.101 248.807,761.129 251.752,761.152ZM208.731,600.599C195.999,593.169 183.725,603.505 181.339,623.666C178.952,643.827 187.352,666.227 200.083,673.657C212.815,681.087 225.089,670.751 227.475,650.59C229.862,630.429 221.462,608.029 208.731,600.599Z"/></g></svg>